<svg width="15" height="15" viewBox="0 0 15 15" fill="none" xmlns="http://www.w3.org/2000/svg">
<path fill-rule="evenodd" clip-rule="evenodd" d="M10.5599 0.598124C10.4193 0.373531 10.2123 0.198349 9.9675 0.0969638C9.72273 -0.00442164 9.45245 -0.0269663 9.19426 0.0324688L7.36186 0.453398C7.17407 0.496562 6.97894 0.496562 6.79115 0.453398L4.95875 0.0324688C4.70057 -0.0269663 4.43028 -0.00442164 4.18551 0.0969638C3.94074 0.198349 3.73366 0.373531 3.59311 0.598124L2.59436 2.19215C2.49245 2.35522 2.35486 2.49281 2.1918 2.59575L0.597881 3.59457C0.37369 3.735 0.198776 3.94175 0.0974191 4.18612C-0.00393797 4.43049 -0.0267106 4.70035 0.032262 4.95825L0.453164 6.79281C0.496169 6.98029 0.496169 7.17507 0.453164 7.36254L0.032262 9.19608C-0.0269398 9.45413 -0.00428177 9.72421 0.0970862 9.96879C0.198454 10.2134 0.373496 10.4203 0.597881 10.5608L2.1918 11.5596C2.35486 11.6615 2.49245 11.7991 2.59538 11.9622L3.59413 13.5562C3.88153 14.0159 4.42982 14.2432 4.95875 14.1219L6.79115 13.7009C6.97894 13.6578 7.17407 13.6578 7.36186 13.7009L9.19528 14.1219C9.45331 14.1811 9.72338 14.1584 9.96794 14.057C10.2125 13.9557 10.4194 13.7806 10.5599 13.5562L11.5587 11.9622C11.6606 11.7991 11.7981 11.6615 11.9612 11.5596L13.5561 10.5608C13.7805 10.4201 13.9555 10.2129 14.0567 9.96816C14.1579 9.72339 14.1803 9.45315 14.1207 9.19506L13.7009 7.36254C13.6577 7.17474 13.6577 6.97959 13.7009 6.79179L14.1218 4.95825C14.1811 4.70031 14.1586 4.4303 14.0574 4.18574C13.9562 3.94117 13.7814 3.73419 13.5572 3.59355L11.9622 2.59473C11.7994 2.49263 11.6618 2.355 11.5597 2.19215L10.5599 0.598124ZM10.0473 4.80436C10.1103 4.68844 10.1259 4.55259 10.0908 4.42539C10.0558 4.29819 9.97271 4.18956 9.85916 4.12235C9.74562 4.05515 9.61043 4.0346 9.48205 4.06505C9.35367 4.09549 9.2421 4.17455 9.17082 4.28558L6.50579 8.79656L4.89658 7.25553C4.84884 7.20651 4.79172 7.1676 4.72862 7.14113C4.66552 7.11467 4.59774 7.10118 4.52931 7.10148C4.46089 7.10178 4.39322 7.11586 4.33036 7.14287C4.26749 7.16989 4.21071 7.20929 4.1634 7.25872C4.11609 7.30816 4.07922 7.36662 4.05499 7.43061C4.03076 7.49461 4.01966 7.56283 4.02237 7.6312C4.02507 7.69958 4.04151 7.76671 4.07072 7.82859C4.09993 7.89048 4.1413 7.94584 4.19236 7.99139L6.26528 9.97781C6.32076 10.0309 6.3875 10.0707 6.46054 10.0943C6.53357 10.118 6.611 10.1248 6.68704 10.1143C6.76308 10.1038 6.83577 10.0763 6.89968 10.0338C6.96359 9.99125 7.01707 9.93484 7.05612 9.86875L10.0473 4.80436Z" fill="#0095FF"/>
</svg>
